<svg viewBox="0 0 24 24" xmlns="http://www.w3.org/2000/svg" fill="none" stroke="currentColor" stroke-width="2" stroke-linecap="round" stroke-linejoin="round">
  <!-- Shopping Cart -->
  <g id="icon-cart">
    <circle cx="9" cy="21" r="1"/>
    <circle cx="20" cy="21" r="1"/>
    <path d="M1 1h4l2.68 13.39a2 2 0 0 0 2 1.61h9.72a2 2 0 0 0 2-1.61L23 6H6"/>
  </g>
  
  <!-- Product Package -->
  <g id="icon-package" transform="translate(0, 30)">
    <path d="M16.5 9.4l-7.51-3.75L1 9.4M21 16v-5.4l-7.5 3.75m0 2.85v4.8L3.5 20.4m7.5-4.65l7.51 3.75L21 20.4M3.5 9.4v11"/>
    <polyline points="3.5 20.4 12 24.15 20.5 20.4"/>
  </g>
  
  <!-- Order/Document -->
  <g id="icon-order" transform="translate(0, 60)">
    <path d="M14 2H6a2 2 0 0 0-2 2v12a2 2 0 0 0 2 2h12a2 2 0 0 0 2-2V8z"/>
    <polyline points="14 2 14 8 20 8"/>
    <line x1="12" y1="11" x2="8" y2="11"/>
    <line x1="12" y1="15" x2="8" y2="15"/>
  </g>
  
  <!-- User/Customer -->
  <g id="icon-user" transform="translate(0, 90)">
    <path d="M20 21v-2a4 4 0 0 0-4-4H8a4 4 0 0 0-4 4v2"/>
    <circle cx="12" cy="7" r="4"/>
  </g>
</svg>
